# AST/ASF file generated using VICON BodyLanguage
# -----------------------------------------------
:version 1.10
:name VICON
:units
  mass 1.0
  length 0.45
  angle deg
:documentation
   .ast/.asf automatically generated from VICON data using
   VICON BodyBuilder and BodyLanguage model FoxedUp or BRILLIANT.MOD
:root
   order TX TY TZ RX RY RZ
   axis XYZ
   position 0 0 0  
   orientation 0 0 0 
:bonedata
  begin
     id 1 
     name lhipjoint
     direction 0.54267 -0.795011 0.271047 
     length 2.39899 
     axis 0 0 0  XYZ
  end
  begin
     id 2 
     name lfemur
     direction 0.34202 -0.939693 0  
     length 7.49701  
     axis 0 0 20  XYZ
    dof rx ry rz
    limits (-160.0 20.0)
           (-70.0 70.0)
           (-60.0 70.0)
  end
  begin
     id 3 
     name ltibia
     direction 0.34202 -0.939693 0   
     length 8.1668   
     axis 0 0 20   XYZ
    dof rx
    limits (-10.0 170.0)
  end
  begin
     id 4 
     name lfoot
     direction 0.0736283 -0.202292 0.976554   
     length 2.13544   
     axis -90 7.62852e-016 20   XYZ
    dof rx rz
    limits (-45.0 90.0)
           (-70.0 20.0)
  end
  begin
     id 5 
     name ltoes
     direction 1.53557e-011 -4.22024e-011 1   
     length 1.07411   
     axis -90 7.62852e-016 20   XYZ
    dof rx
    limits (-90.0 20.0)
  end
  begin
     id 6 
     name rhipjoint
     direction -0.538061 -0.797813 0.272002   
     length 2.39057  
     axis 0 0 0  XYZ 
  end
  begin
     id 7 
     name rfemur
     direction -0.34202 -0.939693 0   
     length 7.50152   
     axis 0 0 -20   XYZ
    dof rx ry rz
    limits (-160.0 20.0)
           (-70.0 70.0)
           (-70.0 60.0)
  end
  begin
     id 8 
     name rtibia
     direction -0.34202 -0.939693 0   
     length 8.05793   
     axis 0 0 -20   XYZ
    dof rx
    limits (-10.0 170.0)
 end
 begin
     id 9 
     name rfoot
     direction -0.0765195 -0.210236 0.974652   
     length 2.28698  
     axis -90 -7.62852e-016 -20   XYZ
    dof rx rz
    limits (-45.0 90.0)
           (-20.0 70.0)
  end
  begin
     id 10 
     name rtoes
     direction -1.53542e-011 -4.21847e-011 1   
     length 1.14762   
     axis -90 -7.62852e-016 -20   XYZ
    dof rx
    limits (-90.0 20.0)
  end
  begin
     id 11 
     name lowerback
     direction -0.0217239 0.996592 -0.0795765   
     length 2.08176   
     axis 0 0 0   XYZ
    dof rx ry rz
    limits (-20.0 45.0)
           (-30.0 30.0)
           (-30.0 30.0)
  end
  begin
     id 12 
     name upperback
     direction -0.00563773 0.999651 -0.0258155   
     length 2.08898   
     axis 0 0 0   XYZ
    dof rx ry rz
    limits (-20.0 45.0)
           (-30.0 30.0)
           (-30.0 30.0)
  end
  begin
     id 13 
     name thorax
     direction 0.0032706 0.999923 0.0119599   
     length 2.0968   
     axis 0 0 0   XYZ
    dof rx ry rz
    limits (-20.0 45.0)
           (-30.0 30.0)
           (-30.0 30.0)
  end
  begin
     id 14 
     name lowerneck
     direction -0.0285886 0.99568 0.0883427   
     length 1.81272   
     axis 0 0 0   XYZ
    dof rx ry rz
    limits (-20.0 45.0)
           (-30.0 30.0)
           (-30.0 30.0)
  end
  begin
     id 15 
     name upperneck
     direction 0.0807535 0.97985 -0.18268   
     length 1.82518   
     axis 0 0 0   XYZ
    dof rx ry rz
    limits (-20.0 45.0)
           (-30.0 30.0)
           (-30.0 30.0)
  end
  begin
     id 16
     name head
     direction 0.0236605 0.997053 -0.0729767  
     length 1.84443  
     axis 0 0 0   XYZ
    dof rx ry rz
    limits (-20.0 45.0)
           (-30.0 30.0)
           (-30.0 30.0)
  end
  begin
     id 17 
     name lclavicle
     direction 0.918986 0.39378 -0.0200683  
     length 3.27822  
     axis 0 0 0   XYZ
    dof ry rz
    limits (-20.0 10.0)
           (0.0 20.0)
  end
  begin
     id 18 
     name lhumerus
     direction 1 -4.4897e-011 2.09544e-027   
     length 5.5568   
     axis 180 -30 -90   XYZ
    dof rx ry rz
    limits (-60.0 90.0)
           (-90.0 90.0)
           (-90.0 90.0)
  end
  begin
     id 19
     name lradius
     direction 1 -4.48957e-011 -1.27696e-026   
     length 3.63979   
     axis 180 -30 -90   XYZ
    dof rx
    limits (-10.0 170.0)
  end
  begin
     id 20
     name lwrist
     direction 1 -4.49001e-011 -1.49001e-026   
     length 1.8199   
     axis 9.0955e-015 90 90   XYZ
    dof ry
    limits (-180.0 0.0)
 end
  begin
     id 21 
     name lhand
     direction 1 -4.48709e-011 -2.9758e-026   
     length 0.569419   
     axis 1.90115e-014 90 90   XYZ
    dof rx rz
    limits (-90.0 90.0)
           (-45.0 45.0)
  end
  begin
     id 22 
     name lfingers
     direction 1 -4.49175e-011 -5.96505e-026   
     length 0.45908   
     axis 3.80223e-014 90 90   XYZ
    dof rx
    limits (0.0 90.0)
  end
  begin
     id 23
     name lthumb
     direction 0.707107 -6.34864e-011 0.707107   
     length 0.65915   
     axis -90 45 -3.84942e-014   XYZ
    dof rx rz
    limits (-45.0 45.0)
           (-45.0 45.0)
  end
  begin
     id 24 
     name rclavicle
     direction -0.911913 0.396426 -0.106115   
     length 3.46301  
     axis 0 0 0   XYZ 
    dof ry rz
    limits (-10.0 20.0)
           (-20.0 0.0)
  end
  begin
     id 25 
     name rhumerus
     direction -1 -4.48965e-011 7.78516e-028  
     length 5.34339   
     axis 180 30 90   XYZ
    dof rx ry rz
    limits (-90.0 60.0)
           (-90.0 90.0)
           (-90.0 90.0)
  end
  begin
     id 26 
     name rradius
     direction -1 -4.48948e-011 -5.79823e-027   
     length 3.65101   
     axis 180 30 90   XYZ
    dof rx
    limits (-10.0 170.0)
  end
  begin
     id 27 
     name rwrist
     direction -1 -4.48995e-011 -1.48996e-026   
     length 1.8255   
     axis 9.0955e-015 -90 -90   XYZ
    dof ry
    limits (-180.0 0.0)
  end
  begin
     id 28
     name rhand
     direction -1 -4.48957e-011 -2.97937e-026   
     length 0.694249   
     axis 1.90115e-014 -90 -90   XYZ
    dof rx rz
    limits (-90.0 90.0)
           (-45.0 45.0)
  end
  begin
     id 29
     name rfingers
     direction -1 -4.4898e-011 -5.95943e-026   
     length 0.559721   
     axis 3.80223e-014 -90 -90   XYZ
    dof rx
    limits (0.0 90.0)
  end
  begin
     id 30
     name rthumb
     direction -0.707107 -6.34969e-011 0.707107   
     length 0.803651   
     axis -90 -45 3.84942e-014   XYZ
    dof rx rz
    limits (-45.0 45.0)
           (-45.0 45.0)
  end
:hierarchy
  begin
    root lhipjoint rhipjoint lowerback
    lhipjoint lfemur
    lfemur ltibia
    ltibia lfoot
    lfoot ltoes
    rhipjoint rfemur
    rfemur rtibia
    rtibia rfoot
    rfoot rtoes
    lowerback upperback
    upperback thorax
    thorax lowerneck lclavicle rclavicle
    lowerneck upperneck
    upperneck head
    lclavicle lhumerus
    lhumerus lradius
    lradius lwrist
    lwrist lhand lthumb
    lhand lfingers
    rclavicle rhumerus
    rhumerus rradius
    rradius rwrist
    rwrist rhand rthumb
    rhand rfingers
  end

#!OML:ASF H:\Terrain\Walking\May29\JustinRory\rory.ASF
:FULLY-SPECIFIED
:DEGREES
588
root 17.8541 10.2331 1.50272 -369.747 -71.568 343.731
lowerback 35.5519 2.2387 -3.96577
upperback 13.4307 0.133804 0.315811
thorax -3.11784 -0.70487 2.39992
lowerneck 6.54309 -21.7346 -17.943
upperneck 3.64644 -33.5772 29.2812
head 8.42918 -16.9008 8.19865
rclavicle 2.22639e-014 -2.38542e-015
rhumerus 55.3818 -21.2307 -94.2613
rradius 73.7649
rwrist -16.7301
rhand -46.5519 48.3608
rfingers 7.12502
rthumb -19.2764 19.2962
lclavicle 2.22639e-014 -2.38542e-015
lhumerus -26.8585 1.62122 59.8899
lradius 83.6697
lwrist 16.7266
lhand -23.4773 25.6594
lfingers 7.12502
lthumb 2.98217 -304.382
rfemur -64.7045 -12.1148 18.8376
rtibia 75.1816
rfoot 18.4349 2.46347
rtoes -11.4651
lfemur -65.195 7.78816 -3.77964
ltibia 67.1361
lfoot 28.3228 -2.30708
ltoes 9.92474
589
root 17.8496 10.2314 1.50756 -368.305 -71.7376 342.273
lowerback 35.6226 2.08347 -3.44767
upperback 13.4414 0.0931643 0.219534
thorax -3.12978 -0.70528 2.0413
lowerneck 6.65444 -21.6857 -17.4488
upperneck 3.37692 -33.4209 29.321
head 8.2049 -16.8567 8.2316
rclavicle 5.1684e-015 1.66979e-014
rhumerus 55.2653 -20.7633 -93.9114
rradius 72.8916
rwrist -15.4679
rhand -45.7303 47.743
rfingers 7.12502
rthumb -18.4863 18.6014
lclavicle 5.1684e-015 1.66979e-014
lhumerus -26.4288 1.61702 59.4841
lradius 83.777
lwrist 17.1404
lhand -22.6154 25.9919
lfingers 7.12502
lthumb 3.81449 -304.062
rfemur -64.6741 -11.8323 19.2964
rtibia 75.1612
rfoot 18.5377 1.98952
rtoes -10.2518
lfemur -65.2602 8.08987 -3.32101
ltibia 67.2753
lfoot 28.2134 -2.50374
ltoes 10.4357
590
root 17.8417 10.2339 1.51355 -366.899 -72.0244 340.912
lowerback 35.5978 2.00494 -3.00104
upperback 13.3989 0.128137 0.00158015
thorax -3.16879 -0.661693 1.5684
lowerneck 6.88809 -21.6532 -16.6072
upperneck 3.0813 -33.2471 29.2429
head 7.86125 -16.819 8.22376
rclavicle 3.77691e-014 -2.8625e-014
rhumerus 54.9684 -20.2524 -93.8926
rradius 72.1875
rwrist -14.2318
rhand -44.6492 46.0168
rfingers 7.12502
rthumb -17.4461 16.7797
lclavicle 3.77691e-014 -2.8625e-014
lhumerus -26.0492 1.39257 58.8595
lradius 83.9863
lwrist 17.6773
lhand -21.6568 25.6647
lfingers 7.12502
lthumb 4.74019 -304.408
rfemur -64.7463 -11.3677 19.6736
rtibia 75.1263
rfoot 18.7167 0.998598
rtoes -7.46092
lfemur -65.3547 8.41269 -2.83781
ltibia 67.3947
lfoot 28.1104 -2.76683
ltoes 10.1152
591
root 17.8324 10.2426 1.51076 -366.782 -72.277 340.894
lowerback 35.5469 2.0617 -3.11045
upperback 13.4271 0.147614 -0.150215
thorax -3.12012 -0.654325 1.46054
lowerneck 6.78807 -21.7082 -16.1807
upperneck 3.07779 -33.228 28.9922
head 7.74112 -16.8022 8.10743
rclavicle 2.94201e-014 1.27222e-014
rhumerus 54.1714 -19.488 -93.3335
rradius 72.064
rwrist -13.2439
rhand -43.7398 43.2262
rfingers 7.12502
rthumb -16.5707 13.9137
lclavicle 2.94201e-014 1.27222e-014
lhumerus -25.5365 1.52538 58.4626
lradius 84.075
lwrist 18.0305
lhand -22.2114 24.9017
lfingers 7.12502
lthumb 4.20463 -305.16
rfemur -64.8522 -10.9744 19.6485
rtibia 75.1
rfoot 18.7019 0.15758
rtoes -4.59583
lfemur -65.3336 8.61986 -2.73901
ltibia 67.4347
lfoot 28.0018 -2.77159
ltoes 10.1829
592
root 17.8337 10.2541 1.50776 -367.594 -72.4196 341.772
lowerback 35.4529 2.08309 -3.40585
upperback 13.6059 0.0602318 -0.177714
thorax -2.88931 -0.722657 1.61386
lowerneck 6.37036 -21.8223 -16.2167
upperneck 3.17204 -33.2567 28.5472
head 7.75442 -16.7662 7.91335
rclavicle 6.75868e-015 -3.49861e-014
rhumerus 53.8168 -18.4603 -91.7927
rradius 71.4962
rwrist -12.7164
rhand -42.7845 41.0179
rfingers 7.12502
rthumb -15.6508 11.6309
lclavicle 6.75868e-015 -3.49861e-014
lhumerus -24.9077 2.07924 58.4899
lradius 84.0481
lwrist 18.0924
lhand -22.5936 25.1886
lfingers 7.12502
lthumb 3.83552 -304.866
rfemur -64.8602 -10.8041 19.3456
rtibia 75.0541
rfoot 18.7341 -0.276505
rtoes -2.21204
lfemur -65.217 8.65757 -2.92632
ltibia 67.4171
lfoot 27.936 -2.36089
ltoes 11.2566
593
root 17.8356 10.2568 1.51445 -368.537 -72.555 342.807
lowerback 35.538 2.0652 -3.50197
upperback 13.6299 -0.0156336 -0.319451
thorax -2.88757 -0.761726 1.54071
lowerneck 6.11286 -21.926 -16.2803
upperneck 3.41065 -33.367 28.2207
head 7.83824 -16.7783 7.75618
rclavicle 5.56597e-015 -1.59028e-015
rhumerus 53.3855 -17.6959 -90.1309
rradius 70.7896
rwrist -12.4409
rhand -41.4734 39.4105
rfingers 7.12502
rthumb -14.3878 9.92911
lclavicle 5.56597e-015 -1.59028e-015
lhumerus -24.2693 2.15484 58.483
lradius 83.9841
lwrist 18.185
lhand -22.4602 25.8069
lfingers 7.12502
lthumb 3.96436 -304.25
rfemur -64.9132 -10.7077 19.0191
rtibia 75.0257
rfoot 18.828 -0.251812
rtoes -1.73458
lfemur -65.1569 8.69266 -3.21535
ltibia 67.408
lfoot 27.6891 -1.35413
ltoes 14.4261
594
root 17.8328 10.2529 1.52201 -368.697 -72.6863 343.003
lowerback 35.6416 2.02202 -3.33712
upperback 13.6249 -0.0397143 -0.521991
thorax -2.92733 -0.760461 1.25081
lowerneck 6.05629 -22.011 -16.0596
upperneck 3.61326 -33.5221 28.1607
head 7.89706 -16.837 7.67086
rclavicle -1.27222e-014 1.43125e-014
rhumerus 52.7927 -17.0457 -89.11
rradius 70.2343
rwrist -11.8937
rhand -39.8291 38.3083
rfingers 7.12502
rthumb -12.803 8.72087
lclavicle -1.27222e-014 1.43125e-014
lhumerus -23.4538 1.87846 58.3331
lradius 83.8405
lwrist 18.1663
lhand -23.269 25.8128
lfingers 7.12502
lthumb 3.18331 -304.231
rfemur -64.9484 -10.6039 19.0074
rtibia 75.0217
rfoot 18.8016 0.456772
rtoes -4.27218
lfemur -65.1547 8.76022 -3.24291
ltibia 67.4323
lfoot 27.4322 -0.80676
ltoes 15.9345
595
root 17.8313 10.2576 1.5248 -368.355 -72.8158 342.582
lowerback 35.5946 1.96918 -3.15933
upperback 13.7724 -0.0654333 -0.578195
thorax -2.75178 -0.776676 1.10606
lowerneck 6.14305 -22.0574 -15.8529
upperneck 3.39385 -33.5347 28.2299
head 7.79328 -16.8648 7.68582
rclavicle -6.2816e-014 2.38542e-014
rhumerus 52.3248 -16.1052 -87.9686
rradius 69.6965
rwrist -11.2885
rhand -38.2595 37.1902
rfingers 7.12502
rthumb -11.2896 7.51404
lclavicle -6.2816e-014 2.38542e-014
lhumerus -22.586 1.76358 58.2162
lradius 83.7409
lwrist 18.0462
lhand -24.3017 25.7821
lfingers 7.12502
lthumb 2.18598 -304.249
rfemur -64.8235 -10.4612 19.1545
rtibia 75.0035
rfoot 18.718 0.830194
rtoes -5.69846
lfemur -65.037 8.82728 -3.03829
ltibia 67.4688
lfoot 27.5551 -1.56486
ltoes 13.1068
596
root 17.8257 10.2605 1.52218 -369.009 -72.8729 343.261
lowerback 35.6102 2.03135 -3.51893
upperback 13.8416 -0.110564 -0.481719
thorax -2.67773 -0.824505 1.40885
lowerneck 6.25339 -22.0261 -16.2059
upperneck 3.21325 -33.4909 28.3694
head 7.79926 -16.8624 7.78097
rclavicle 3.22031e-014 -1.11319e-014
rhumerus 51.8644 -14.7973 -86.3821
rradius 69.1708
rwrist -10.9824
rhand -36.7005 35.7049
rfingers 7.12502
rthumb -9.78569 5.95229
lclavicle 3.22031e-014 -1.11319e-014
lhumerus -21.8166 1.88334 58.2782
lradius 83.7458
lwrist 17.9477
lhand -23.9866 26.0014
lfingers 7.12502
lthumb 2.49028 -304.033
rfemur -64.8147 -10.3817 18.9642
rtibia 75.0135
rfoot 18.7082 0.876982
rtoes -6.1552
lfemur -64.9407 8.87392 -3.20635
ltibia 67.4872
lfoot 27.6665 -2.18984
ltoes 11.4231
